<svg width="501" height="350" viewBox="0 0 501 350" fill="none" xmlns="http://www.w3.org/2000/svg">
<g clip-path="url(#clip0)">
<path d="M22.3038 134.316C22.7826 163.876 33.8307 167.076 47.3982 163.993C62.8975 160.471 75.6188 149.432 81.8887 134.827L86.2127 124.754C89.0874 118.057 89.1842 110.493 86.4818 103.726C83.7793 96.9578 78.4991 91.5407 71.8027 88.666H71.8026C68.4869 87.2426 64.9233 86.4863 61.3152 86.4401C57.7071 86.394 54.1253 87.0589 50.7743 88.397C47.4232 89.7351 44.3685 91.7201 41.7846 94.2388C39.2006 96.7574 37.1381 99.7603 35.7147 103.076C21.8006 108.542 19.0525 119.858 22.3038 134.316Z" fill="#2F2E41"/>
<path d="M109.544 74.8227L113.709 67.776C114.217 66.9155 114.524 65.951 114.607 64.9549C114.689 63.9588 114.545 62.9569 114.185 62.0244C113.825 61.092 113.259 60.2531 112.529 59.5708C111.798 58.8885 110.923 58.3804 109.968 58.0847C108.96 57.7726 107.893 57.7059 106.854 57.8902C105.815 58.0744 104.835 58.5043 103.996 59.1439C103.157 59.7835 102.483 60.6144 102.031 61.5673C101.578 62.5202 101.359 63.5675 101.394 64.6219L101.638 72.1966L82.068 125.829L92.74 128.057L109.544 74.8227Z" fill="#9F616A"/>
<path d="M6.5861 207.035L1.46038 213.417C0.834462 214.196 0.393134 215.107 0.169511 216.081C-0.0541125 217.055 -0.0542261 218.068 0.169177 219.042C0.392581 220.016 0.833702 220.927 1.45945 221.707C2.08519 222.486 2.87931 223.114 3.78223 223.542C4.73525 223.995 5.78261 224.213 6.83703 224.178C7.89145 224.144 8.92239 223.858 9.84393 223.345C10.7655 222.831 11.5509 222.105 12.1348 221.226C12.7187 220.347 13.0841 219.342 13.2006 218.293L14.0375 210.761L41.049 160.464L30.8033 156.738L6.5861 207.035Z" fill="#9F616A"/>
<path d="M38.2548 260.127L39.0092 269.19L39.1862 271.305L89.353 266.48C91.0822 266.285 92.741 265.685 94.1947 264.728C95.6483 263.771 96.8557 262.485 97.7188 260.974C98.5819 259.463 99.0763 257.77 99.1618 256.032C99.2473 254.294 98.9215 252.56 98.2109 250.971L82.032 216.239L76.4434 204.242L52.2262 198.653C32.2564 213.938 50.2236 230.806 72.8294 247.87C73.7143 248.54 74.6085 249.211 75.512 249.882L38.2548 260.127Z" fill="#2F2E41"/>
<path d="M21.3505 291.51C21.9617 291.597 22.5852 291.526 23.161 291.303C23.7368 291.081 24.2458 290.714 24.639 290.238L41.0488 270.373L40.1173 261.059L34.5221 257.702C34.0644 257.427 33.5524 257.255 33.0217 257.199C32.4909 257.142 31.9542 257.201 31.4488 257.373C30.9433 257.544 30.4813 257.824 30.0948 258.192C29.7083 258.56 29.4065 259.008 29.2106 259.504L18.5076 286.619C18.3077 287.125 18.2251 287.67 18.2661 288.213C18.307 288.756 18.4704 289.282 18.7439 289.753C19.0175 290.224 19.3941 290.626 19.8456 290.931C20.297 291.235 20.8115 291.433 21.3505 291.51Z" fill="#2F2E41"/>
<path opacity="0.2" d="M35.4602 258.265L36.3916 269.442L39.009 269.19L86.5584 264.617C88.2876 264.422 89.9465 263.822 91.4001 262.865C92.8538 261.909 94.0612 260.622 94.9243 259.111C95.7873 257.6 96.2817 255.907 96.3672 254.169C96.4527 252.431 96.1269 250.697 95.4163 249.109L82.0317 219.145V216.239L76.4431 204.242L52.226 198.653C32.2561 213.938 50.2234 230.806 72.8292 247.87L72.7174 248.019L35.4602 258.265Z" fill="black"/>
<path d="M16.6935 287.784C17.3047 287.871 17.9282 287.8 18.504 287.577C19.0798 287.354 19.5888 286.987 19.982 286.511L36.3918 266.647L35.4603 257.333L29.8651 253.975C29.4074 253.701 28.8954 253.529 28.3647 253.472C27.8339 253.415 27.2972 253.475 26.7918 253.646C26.2863 253.818 25.8243 254.098 25.4378 254.466C25.0513 254.834 24.7496 255.282 24.5536 255.778L13.8506 282.892C13.6507 283.399 13.5681 283.944 13.6091 284.487C13.65 285.03 13.8134 285.556 14.087 286.027C14.3605 286.497 14.7372 286.9 15.1886 287.204C15.64 287.509 16.1545 287.707 16.6935 287.784Z" fill="#2F2E41"/>
<path d="M33.5974 256.401L34.5288 267.578L84.6956 262.752C86.4248 262.557 88.0835 261.957 89.5372 261.001C90.9909 260.045 92.1985 258.759 93.0619 257.248C93.9253 255.737 94.4202 254.044 94.5063 252.306C94.5924 250.568 94.2673 248.835 93.5575 247.246L80.1689 217.281V200.515L47.5689 194.927C26.8132 210.812 47.0363 228.408 70.8546 246.155L33.5974 256.401Z" fill="#2F2E41"/>
<path d="M65.2661 125.07C72.9823 125.07 79.2376 118.814 79.2376 111.098C79.2376 103.382 72.9823 97.1267 65.2661 97.1267C57.5499 97.1267 51.2947 103.382 51.2947 111.098C51.2947 118.814 57.5499 125.07 65.2661 125.07Z" fill="#9F616A"/>
<path d="M46.6373 134.384L66.1974 147.424L82.9631 143.698L73.6488 134.384V120.413L58.7459 119.481C58.433 125.06 55.236 130.166 46.6373 134.384Z" fill="#9F616A"/>
<path d="M43.8429 199.584L80.1687 204.241L88.5516 165.121C92.446 154.737 90.2115 145.562 83.0014 137.37C82.7256 135.991 81.991 134.747 80.9173 133.839C79.8436 132.931 78.4941 132.414 77.0887 132.371L73.6487 132.521C74.0378 144.874 64.9365 141.899 51.2944 131.59L49.6471 132.084C47.5176 132.723 45.6893 134.107 44.4968 135.983C43.3043 137.86 42.8273 140.103 43.1531 142.302L44.6552 152.441C45.2922 156.461 46.2816 160.416 47.6121 164.263C51.3364 175.393 50.0055 187.177 43.8429 199.584Z" fill="#00539C"/>
<path d="M27.0775 157.67L43.8432 163.258L51.2947 136.247L48.7703 135.1C46.6774 134.148 44.3009 134.029 42.1231 134.765C39.9454 135.502 38.1294 137.04 37.0438 139.066L27.0775 157.67Z" fill="#00539C"/>
<path d="M76.4432 132.521L85.7578 142.767L96.9346 125.069L82.963 117.618L76.4432 132.521Z" fill="#00539C"/>
<path d="M48.9658 106.907C57.7454 110.217 67.1152 109.874 76.9087 106.907V95.7296H48.9658V106.907Z" fill="#2F2E41"/>
<path d="M484.713 298.774L475.081 302.787L410.867 215.296L364.313 304.393L352.273 301.985L387.59 179.176H428.526L484.713 298.774Z" fill="#2F2E41"/>
<path d="M497.635 319.183C497.101 319.329 496.544 319.368 495.995 319.297C495.446 319.226 494.916 319.048 494.437 318.772L474.123 307.076C473.575 306.76 473.107 306.323 472.755 305.797C472.403 305.271 472.177 304.671 472.094 304.044C472.011 303.417 472.073 302.779 472.276 302.18C472.48 301.581 472.818 301.036 473.265 300.589L475.081 298.773L484.713 297.971L499.437 312.107C499.973 312.621 500.363 313.268 500.566 313.982C500.77 314.695 500.781 315.451 500.598 316.17C500.415 316.89 500.044 317.547 499.524 318.077C499.003 318.606 498.351 318.988 497.635 319.183Z" fill="#2F2E41"/>
<path d="M340.153 322.395C340.687 322.54 341.245 322.579 341.794 322.508C342.343 322.437 342.872 322.259 343.352 321.983L363.665 310.287C364.213 309.971 364.682 309.534 365.034 309.008C365.386 308.482 365.612 307.883 365.695 307.255C365.778 306.628 365.715 305.99 365.512 305.391C365.309 304.792 364.97 304.248 364.523 303.8L362.708 301.985L353.075 301.182L338.351 315.318C337.815 315.832 337.426 316.479 337.222 317.193C337.018 317.907 337.007 318.662 337.19 319.381C337.373 320.101 337.744 320.759 338.265 321.288C338.785 321.817 339.437 322.199 340.153 322.395Z" fill="#2F2E41"/>
<path d="M360.3 51.552L356.286 53.96L347.97 40.4451C347.459 39.6151 347.155 38.6744 347.084 37.7023C347.013 36.7303 347.177 35.7554 347.562 34.86C347.946 33.9645 348.541 33.1747 349.295 32.5572C350.049 31.9396 350.94 31.5124 351.894 31.3117C352.742 31.1331 353.618 31.138 354.464 31.3259C355.31 31.5138 356.106 31.8805 356.799 32.4012C357.491 32.922 358.065 33.5848 358.48 34.3453C358.896 35.1058 359.144 35.9463 359.208 36.8105L360.3 51.552Z" fill="#FFB9B9"/>
<path d="M471.475 156.772L473.14 152.398L488.033 157.876C488.948 158.213 489.768 158.764 490.425 159.484C491.082 160.204 491.556 161.072 491.807 162.014C492.058 162.955 492.08 163.943 491.869 164.895C491.658 165.847 491.222 166.734 490.596 167.481C490.04 168.146 489.349 168.684 488.568 169.059C487.787 169.435 486.934 169.639 486.068 169.658C485.202 169.677 484.341 169.51 483.544 169.17C482.748 168.829 482.033 168.322 481.448 167.682L471.475 156.772Z" fill="#FFB9B9"/>
<path d="M408.459 99.712C415.109 99.712 420.5 94.3215 420.5 87.672C420.5 81.0225 415.109 75.632 408.459 75.632C401.81 75.632 396.419 81.0225 396.419 87.672C396.419 94.3215 401.81 99.712 408.459 99.712Z" fill="#FFB9B9"/>
<path d="M418.894 113.357H402.038V94.8959L416.486 93.2904L418.894 113.357Z" fill="#FFB9B9"/>
<path d="M430.934 183.992H385.182C386.796 158.464 388.073 133.795 385.182 119.779L387.843 107.009C388.211 105.24 389.232 103.674 390.703 102.623C392.173 101.572 393.985 101.113 395.778 101.337L402.038 102.12C406.278 109.573 411.401 109.501 417.289 102.922H424.829C425.835 102.922 426.83 103.123 427.757 103.512C428.684 103.902 429.523 104.472 430.227 105.19C430.931 105.908 431.484 106.759 431.855 107.693C432.226 108.627 432.407 109.626 432.387 110.631C434.351 119.625 435.005 128.856 434.327 138.037L430.934 183.992Z" fill="#3F3D56"/>
<path d="M353.878 51.5516L360.299 48.3412L394.814 105.331L385.182 119.779L353.878 51.5516Z" fill="#3F3D56"/>
<path d="M471.565 159.056L477.053 154.427L447.894 113.567C445.041 109.57 441.109 106.468 436.556 104.625C432.004 102.782 427.022 102.274 422.191 103.161L421.271 103.33L432.297 122.626L446.819 133.62L471.565 159.056Z" fill="#3F3D56"/>
<path d="M422.384 80.5645C422.384 80.5645 424.634 75.6149 418.784 73.3651C418.784 73.3651 413.835 65.2657 403.935 70.6653C403.935 70.6653 397.186 73.3651 397.186 80.5645C397.186 87.7639 394.936 89.1138 394.936 89.1138C394.936 89.1138 398.286 85.6766 399.186 82.9768C400.086 80.277 407.085 79.6645 409.785 82.3643C412.485 85.0641 419.234 84.6141 419.234 84.6141L418.784 94.5133C418.784 94.5133 421.034 88.6638 421.934 88.6638C422.834 88.6638 423.734 80.5645 422.384 80.5645Z" fill="#2F2E41"/>
<path d="M421.272 350C461.959 350 494.942 348.282 494.942 346.163C494.942 344.044 461.959 342.326 421.272 342.326C380.586 342.326 347.602 344.044 347.602 346.163C347.602 348.282 380.586 350 421.272 350Z" fill="#E6E6E6"/>
<path d="M53.4483 348.191C74.9542 348.191 92.3882 347.283 92.3882 346.163C92.3882 345.043 74.9542 344.135 53.4483 344.135C31.9424 344.135 14.5084 345.043 14.5084 346.163C14.5084 347.283 31.9424 348.191 53.4483 348.191Z" fill="#E6E6E6"/>
<path d="M350.961 67.5073L114.234 88.7237C113.071 88.8265 111.915 88.4641 111.02 87.7159C110.124 86.9677 109.562 85.8949 109.457 84.7328L104.194 26.0108C104.091 24.8484 104.454 23.6927 105.202 22.7972C105.95 21.9017 107.023 21.3396 108.185 21.234L344.912 0.0176324C346.075 -0.0851656 347.23 0.277278 348.126 1.02546C349.021 1.77363 349.583 2.84645 349.689 4.00858L354.952 62.7306C355.055 63.8929 354.692 65.0486 353.944 65.9441C353.196 66.8396 352.123 67.4018 350.961 67.5073Z" fill="#00539C"/>
<path d="M141.896 70.7144C152.106 70.7144 160.382 62.4379 160.382 52.2285C160.382 42.019 152.106 33.7426 141.896 33.7426C131.687 33.7426 123.41 42.019 123.41 52.2285C123.41 62.4379 131.687 70.7144 141.896 70.7144Z" fill="white"/>
<path d="M183.319 36.1427C182.507 36.2171 181.757 36.6109 181.234 37.2377C180.711 37.8645 180.459 38.673 180.531 39.4859C180.604 40.2987 180.997 41.0495 181.623 41.5733C182.248 42.0972 183.056 42.3514 183.869 42.28L328.536 29.3145C328.939 29.2789 329.332 29.1642 329.691 28.9768C330.05 28.7894 330.368 28.5331 330.628 28.2225C330.888 27.9119 331.084 27.5532 331.205 27.1667C331.326 26.7803 331.37 26.3737 331.334 25.9704C331.298 25.567 331.182 25.1748 330.995 24.816C330.807 24.4573 330.55 24.1391 330.239 23.8796C329.928 23.6202 329.569 23.4246 329.182 23.3041C328.796 23.1835 328.389 23.1404 327.986 23.1771L183.319 36.1427Z" fill="white"/>
<path d="M184.969 54.5548C184.566 54.5901 184.173 54.7048 183.814 54.8921C183.455 55.0793 183.136 55.3356 182.876 55.6463C182.616 55.9569 182.42 56.3158 182.299 56.7023C182.177 57.0889 182.134 57.4955 182.17 57.899C182.206 58.3025 182.321 58.6949 182.509 59.0537C182.697 59.4126 182.954 59.7308 183.265 59.9902C183.577 60.2497 183.936 60.4452 184.323 60.5656C184.709 60.6861 185.116 60.7291 185.52 60.6921L330.186 47.7266C330.589 47.691 330.982 47.5763 331.341 47.3889C331.7 47.2015 332.018 46.9452 332.278 46.6346C332.538 46.324 332.734 45.9653 332.855 45.5788C332.976 45.1924 333.02 44.7858 332.984 44.3825C332.948 43.9791 332.833 43.5869 332.645 43.2281C332.457 42.8694 332.2 42.5512 331.889 42.2918C331.578 42.0323 331.219 41.8367 330.832 41.7162C330.446 41.5957 330.039 41.5525 329.636 41.5892L184.969 54.5548Z" fill="white"/>
</g>
<defs>
<clipPath id="clip0">
<rect width="500.731" height="350" fill="white"/>
</clipPath>
</defs>
</svg>
