<svg width="71" height="71" viewBox="0 0 71 71" fill="none" xmlns="http://www.w3.org/2000/svg">
<path d="M32.8092 57.5445C32.7877 52.8383 32.431 52.0164 35.3724 52.0029C38.3137 51.9895 37.9054 52.7562 37.986 57.5209C38.0021 61.0505 35.4223 62.9448 35.4223 62.9448C35.4223 62.9448 32.8253 61.0741 32.8092 57.5445Z" fill="#FF9D27"/>
<path d="M39.6825 55.4542C38.1375 52.0492 38.1348 51.4609 36.0197 52.0588C33.9046 52.6568 34.4365 53.1838 36.0401 56.5297C37.1694 59.0541 39.6438 59.8664 39.6438 59.8664C39.6438 59.8664 40.9294 57.9781 39.6825 55.4542Z" fill="#FF9D27"/>
<path d="M36.031 54.5296C35.1988 52.6508 34.9034 52.3581 36.0197 52.0588C37.1946 51.7005 37.1963 52.0535 38.0284 53.9322C38.6817 55.2822 38.0397 56.4029 38.0397 56.4029C38.0397 56.4029 36.7434 55.9382 36.031 54.5296Z" fill="#FDF516"/>
<path d="M34.667 52.1238C32.5465 51.5452 32.5492 52.1335 31.0353 55.5524C29.9291 58.0871 31.1142 59.9642 31.1142 59.9642C31.1142 59.9642 33.5812 59.1293 34.6874 56.5947C36.2013 53.1757 36.7283 52.6439 34.667 52.1238Z" fill="#FF9D27"/>
<path d="M34.6783 54.5946C35.4933 52.7084 35.7861 52.4129 34.667 52.1239C33.4889 51.7763 33.4905 52.1292 32.6755 54.0155C32.0346 55.3714 32.6868 56.4862 32.6868 56.4862C32.6868 56.4862 34.0374 55.9506 34.6783 54.5946Z" fill="#FDF516"/>
<path d="M33.916 55.1275C33.9041 52.5391 33.6667 52.0696 35.3138 52.0621C36.961 52.0545 36.7278 52.5262 36.7396 55.1146C36.7488 57.1147 35.2827 58.1215 35.2827 58.1215C35.2827 58.1215 33.9836 57.0685 33.916 55.1275Z" fill="#FDF516"/>
<path d="M30.9364 46.7875C21.1599 44.3613 17.6695 52.9661 17.6695 52.9661C17.6695 52.9661 17.5906 35.671 29.2383 35.6179L30.9364 46.7875Z" fill="#3BAACF"/>
<path d="M29.1969 39.4419L29.1797 35.677C17.5906 35.671 17.6695 52.9661 17.6695 52.9661C17.6695 52.9661 19.7867 39.9555 29.1969 39.4419Z" fill="#428BC1"/>
<path d="M39.7605 46.7473C49.5145 44.232 53.0833 52.8046 53.0833 52.8046C53.0833 52.8046 53.0044 35.5095 41.3567 35.5626L39.7605 46.7473Z" fill="#3BAACF"/>
<path d="M41.4329 39.3861L41.4158 35.6212C53.0635 35.568 53.1424 52.8632 53.1424 52.8632C53.1424 52.8632 50.8474 39.8138 41.4329 39.3861Z" fill="#428BC1"/>
<path d="M44.4839 24.7239C44.4876 38.4309 40.6566 49.7434 35.3622 49.7675C30.0677 49.7917 26.1336 38.5146 26.0123 24.8082C25.9393 8.80729 35.1362 0.235253 35.1362 0.235253C35.1362 0.235253 44.3524 8.78211 44.4839 24.7239Z" fill="#C5D0D8"/>
<path d="M40.777 24.5643C40.8393 38.2122 38.5377 49.5177 35.3611 49.5322C32.1844 49.5467 29.7798 38.2626 29.7176 24.6148C29.6446 8.61387 35.1351 -8.17538e-05 35.1351 -8.17538e-05C35.1351 -8.17538e-05 40.704 8.56342 40.777 24.5643Z" fill="#DAE3EA"/>
<path d="M39.9469 48.9231C39.9496 49.5114 39.4812 49.9841 38.8929 49.9868L31.8337 50.019C31.2454 50.0217 30.7135 49.4947 30.7108 48.9064L30.7012 46.7887L39.8782 46.7468L39.9469 48.9231Z" fill="#C94747"/>
<path d="M37.8877 48.8736C37.8904 49.4619 37.6572 49.9336 37.3043 49.9352L33.304 49.9534C32.9511 49.955 32.7136 49.4855 32.7109 48.8972L32.7013 46.7794L37.878 46.7558L37.8877 48.8736Z" fill="#F15744"/>
<path d="M38.3696 51.3422C38.3712 51.6952 37.9613 52.1088 37.6083 52.1104L33.0198 52.1314C32.6669 52.133 32.3709 51.7225 32.3693 51.3696L32.3628 49.9577L38.3632 49.9303L38.3696 51.3422Z" fill="#3E4347"/>
<path d="M37.4283 51.3465C37.4299 51.6994 37.1377 52.1126 36.9024 52.1136L33.7257 52.1281C33.4904 52.1292 33.2535 51.7773 33.3105 51.3652L33.304 49.9534L37.4219 49.9346L37.4283 51.3465Z" fill="#62727A"/>
<path d="M35.1362 0.235253C35.1362 0.235253 31.8559 3.30928 29.2358 9.26288L41.1188 9.20866C38.4445 3.27922 35.1362 0.235253 35.1362 0.235253Z" fill="#C94747"/>
<path d="M35.1362 0.235263C35.1362 0.235263 33.15 3.30339 31.5302 9.31125L38.8248 9.27797C37.1502 3.28514 35.1362 0.235263 35.1362 0.235263Z" fill="#F15744"/>
<path d="M38.1892 24.6938C39.8062 23.0619 39.7942 20.4282 38.1623 18.8111C36.5305 17.1941 33.8967 17.2061 32.2796 18.838C30.6626 20.4698 30.6746 23.1036 32.3065 24.7207C33.9384 26.3377 36.5721 26.3257 38.1892 24.6938Z" fill="#EDF4F9"/>
<path d="M37.1845 23.6983C38.2518 22.6213 38.2439 20.883 37.1668 19.8157C36.0898 18.7485 34.3515 18.7564 33.2843 19.8334C32.217 20.9105 32.2249 22.6487 33.302 23.716C34.379 24.7833 36.1173 24.7753 37.1845 23.6983Z" fill="#3BAACF"/>
<path d="M38.2429 36.4592C39.8599 34.8273 39.8479 32.1936 38.216 30.5765C36.5841 28.9595 33.9504 28.9715 32.3333 30.6033C30.7163 32.2352 30.7283 34.869 32.3602 36.486C33.992 38.1031 36.6258 38.0911 38.2429 36.4592Z" fill="#EDF4F9"/>
<path d="M37.2382 35.4637C38.3055 34.3866 38.2975 32.6483 37.2205 31.5811C36.1435 30.5138 34.4052 30.5218 33.3379 31.5988C32.2707 32.6758 32.2786 34.4141 33.3556 35.4814C34.4327 36.5486 36.171 36.5407 37.2382 35.4637Z" fill="#3BAACF"/>
<path d="M30.3596 10.6108C30.3612 10.9637 30.0099 11.3183 29.6569 11.3199C29.3039 11.3215 28.9494 10.9702 28.9478 10.6172C28.9462 10.2642 29.2975 9.90967 29.6505 9.90806C30.0034 9.90645 30.358 10.2578 30.3596 10.6108Z" fill="white"/>
<path d="M32.8325 11.0701C33.0912 10.809 33.0893 10.3876 32.8282 10.1289C32.5671 9.87017 32.1457 9.8721 31.8869 10.1332C31.6282 10.3943 31.6301 10.8157 31.8912 11.0744C32.1523 11.3332 32.5737 11.3312 32.8325 11.0701Z" fill="white"/>
<path d="M35.6562 11.0572C35.9149 10.7961 35.913 10.3747 35.6519 10.116C35.3908 9.85723 34.9694 9.85916 34.7106 10.1203C34.4519 10.3814 34.4538 10.8028 34.7149 11.0615C34.976 11.3202 35.3974 11.3183 35.6562 11.0572Z" fill="white"/>
<path d="M38.4213 11.1035C38.68 10.8424 38.6781 10.421 38.417 10.1622C38.1559 9.9035 37.7345 9.90542 37.4758 10.1665C37.217 10.4276 37.219 10.849 37.4801 11.1077C37.7412 11.3665 38.1626 11.3646 38.4213 11.1035Z" fill="white"/>
<path d="M41.1859 11.032C41.4447 10.7709 41.4427 10.3495 41.1816 10.0908C40.9205 9.83209 40.4991 9.83401 40.2404 10.0951C39.9817 10.3562 39.9836 10.7776 40.2447 11.0363C40.5058 11.2951 40.9272 11.2931 41.1859 11.032Z" fill="white"/>
</svg>
